<svg width="15" height="12" viewBox="0 0 15 12" fill="none" xmlns="http://www.w3.org/2000/svg">
<path d="M0.75 4.77298C0.335786 4.77298 9.05293e-09 5.10877 0 5.52298C-9.05293e-09 5.93719 0.335786 6.27298 0.75 6.27298L0.75 5.52298L0.75 4.77298ZM14.0083 6.05331C14.3011 5.76042 14.3011 5.28554 14.0083 4.99265L9.23528 0.219679C8.94239 -0.0732144 8.46752 -0.0732144 8.17462 0.219679C7.88173 0.512572 7.88173 0.987446 8.17462 1.28034L12.4173 5.52298L8.17462 9.76562C7.88173 10.0585 7.88173 10.5334 8.17462 10.8263C8.46751 11.1192 8.94239 11.1192 9.23528 10.8263L14.0083 6.05331ZM0.75 5.52298L0.75 6.27298L13.4779 6.27298L13.4779 5.52298L13.4779 4.77298L0.75 4.77298L0.75 5.52298Z" fill="black"/>
</svg>
