<svg width="15" height="12" viewBox="0 0 15 12" fill="none" xmlns="http://www.w3.org/2000/svg">
<path d="M13.4779 6.27298C13.8921 6.27298 14.2279 5.93719 14.2279 5.52298C14.2279 5.10877 13.8921 4.77298 13.4779 4.77298L13.4779 5.52298L13.4779 6.27298ZM0.219653 4.99265C-0.0732403 5.28554 -0.0732403 5.76042 0.219653 6.05331L4.99262 10.8263C5.28552 11.1192 5.76039 11.1192 6.05328 10.8263C6.34618 10.5334 6.34618 10.0585 6.05328 9.76562L1.81064 5.52298L6.05328 1.28034C6.34618 0.987445 6.34618 0.512572 6.05328 0.219678C5.76039 -0.0732149 5.28552 -0.073215 4.99262 0.219678L0.219653 4.99265ZM13.4779 5.52298L13.4779 4.77298L0.749983 4.77298L0.749983 5.52298L0.749983 6.27298L13.4779 6.27298L13.4779 5.52298Z" fill="black"/>
</svg>
